<?xml version="1.0" standalone="no"?>
<!DOCTYPE svg PUBLIC "-//W3C//DTD SVG 20010904//EN"
 "http://www.w3.org/TR/2001/REC-SVG-20010904/DTD/svg10.dtd">
<svg version="1.0" xmlns="http://www.w3.org/2000/svg"
 width="300.000000pt" height="300.000000pt" viewBox="0 0 300.000000 300.000000"
 preserveAspectRatio="xMidYMid meet">
<defs>
  <linearGradient id="grad1" x1="0" y1="1" x2="0" y2="0">
    <stop offset="0%" style="stop-color:lime; stop-opacity:1" />
    <stop offset="100%" style="stop-color:gold; stop-opacity:1" />
  </linearGradient>
</defs>
<metadata>
Created by potrace 1.10, written by Peter Selinger 2001-2011
</metadata>
<g transform="translate(0.000000,300.000000) scale(0.100000,-0.100000)"
fill="url(#grad1)" stroke="none">

<path d="M1462 2757 c-30 -32 -29 -80 3 -105 25 -20 25 -22 25 -168 l0 -148
-84 88 c-70 74 -83 93 -77 110 17 45 -17 86 -70 86 -28 0 -42 -6 -53 -22 -36
-51 -4 -118 57 -118 28 0 47 -14 130 -97 l97 -98 0 -475 c0 -261 0 -479 0
-485 0 -5 -20 11 -45 35 l-45 44 0 161 0 161 -40 40 -40 39 0 173 c0 171 0
173 24 195 52 46 23 127 -44 127 -73 0 -98 -118 -31 -142 5 -1 11 -73 13 -160
l3 -158 -87 87 -88 88 0 157 c0 133 2 158 15 158 16 0 45 49 45 75 0 25 -46
65 -75 65 -32 0 -75 -44 -75 -77 0 -13 11 -34 24 -46 23 -21 24 -30 27 -159
l4 -138 -87 87 -88 88 0 52 c0 38 4 53 14 53 18 0 32 18 40 53 5 23 1 34 -24
58 -24 25 -36 30 -58 25 -61 -15 -80 -79 -37 -122 21 -21 25 -35 25 -80 l0
-56 251 -247 251 -247 -1 -161 -2 -162 66 -62 65 -62 0 -523 c0 -517 0 -524
20 -524 20 0 20 7 20 649 l0 648 162 162 c130 128 168 161 190 161 52 0 80 87
39 124 -48 43 -136 -12 -115 -71 9 -26 5 -34 -51 -95 -33 -37 -62 -68 -65 -68
-3 0 -3 60 0 133 l5 134 95 101 c110 117 174 156 237 146 49 -7 83 21 83 71 0
36 -36 75 -70 75 -33 0 -70 -39 -70 -74 0 -27 -6 -35 -35 -49 l-35 -17 1 105
1 105 39 33 c31 27 45 32 73 29 42 -5 76 25 76 67 0 72 -80 101 -127 46 -16
-18 -23 -35 -19 -50 4 -16 -5 -31 -34 -60 l-40 -39 0 -123 0 -123 -110 -117
-110 -117 0 -156 0 -156 -60 -59 -60 -59 0 249 0 250 111 105 c62 58 116 107
120 108 5 2 9 43 9 91 0 84 1 88 25 99 32 15 43 57 22 91 -20 34 -59 48 -92
33 -52 -24 -59 -104 -10 -122 23 -9 23 -12 18 -87 l-5 -78 -97 -91 -96 -91 -3
245 -2 246 27 22 c33 26 37 82 8 114 -25 28 -75 26 -103 -3z m73 -52 c0 -25
-4 -30 -25 -30 -16 0 -26 6 -28 18 -6 30 6 49 30 45 18 -2 23 -9 23 -33z m513
-119 c-4 -25 -40 -33 -57 -13 -24 29 17 67 47 44 7 -6 12 -20 10 -31z m-764
-17 c20 -29 10 -51 -23 -47 -41 5 -40 67 1 68 4 0 14 -10 22 -21z m500 -26 c7
-18 -10 -43 -30 -43 -7 0 -19 10 -25 22 -9 18 -8 24 6 34 20 15 41 9 49 -13z
m-869 -141 c9 -25 -18 -46 -44 -33 -25 14 -26 24 -6 45 18 17 41 12 50 -12z
m209 6 c8 -14 7 -21 -6 -34 -30 -30 -75 9 -48 42 16 18 39 15 54 -8z m944
-101 c-4 -33 -52 -31 -56 2 -2 13 2 27 9 32 20 12 51 -9 47 -34z m-741 -63 c7
-18 -6 -45 -24 -51 -6 -2 -18 3 -27 12 -12 12 -13 21 -6 36 13 23 48 25 57 3z
m572 -322 c11 -20 -2 -42 -25 -42 -18 0 -35 26 -28 44 8 22 41 20 53 -2z"/>
<path d="M2246 2318 c-25 -35 -20 -73 12 -100 25 -21 27 -29 27 -96 l0 -72
-102 -100 c-56 -55 -104 -100 -107 -100 -3 0 -6 21 -6 46 0 37 5 50 25 66 17
13 25 29 25 51 0 38 -7 50 -37 66 -33 17 -51 14 -78 -14 -32 -31 -32 -69 0
-101 l25 -25 0 -227 0 -227 -106 -105 c-111 -110 -137 -147 -132 -184 2 -15
-13 -41 -48 -80 l-50 -57 -2 149 -2 149 66 66 c54 54 71 66 90 61 32 -8 74 35
74 76 0 64 -75 93 -119 46 -18 -19 -22 -33 -18 -58 5 -30 -1 -39 -61 -101
l-67 -68 -1 -179 -1 -179 -32 -36 -31 -36 0 -177 0 -178 65 -64 65 -64 0 -123
c0 -119 1 -123 21 -123 21 0 21 3 17 133 l-4 132 -65 69 -66 69 5 161 5 160
86 93 86 93 105 0 105 0 85 85 85 85 85 0 c80 0 88 -2 108 -25 28 -32 66 -32
97 0 42 41 29 95 -26 114 -26 9 -37 8 -56 -5 -13 -8 -27 -22 -30 -30 -4 -11
-26 -14 -97 -14 l-91 -1 -88 -84 -87 -85 -85 0 -85 0 0 28 c1 21 36 64 178
210 l178 182 125 0 c121 0 126 -1 149 -25 29 -30 59 -32 94 -4 30 24 34 63 10
97 -22 32 -94 28 -109 -5 -9 -20 -17 -22 -117 -25 -59 -2 -108 0 -108 4 0 4
10 14 22 22 12 9 79 72 149 141 70 70 133 126 140 124 31 -4 50 2 69 21 26 26
25 60 -1 94 -43 55 -125 19 -116 -52 4 -37 2 -39 -207 -243 l-211 -207 -3 128
-3 128 117 113 c63 63 121 117 127 121 6 4 10 39 8 91 -1 80 0 85 24 101 31
21 35 83 7 109 -28 25 -87 22 -106 -5z m82 -46 c4 -28 -24 -40 -45 -19 -21 21
-9 49 19 45 15 -2 24 -11 26 -26z m-248 -257 c0 -27 -26 -40 -46 -24 -19 16
-18 36 3 47 24 14 43 4 43 -23z m500 -10 c18 -21 5 -47 -22 -43 -26 3 -37 36
-16 49 18 12 24 11 38 -6z m-45 -395 c0 -18 -6 -26 -23 -28 -24 -4 -38 18 -28
44 3 9 15 14 28 12 17 -2 23 -10 23 -28z m-657 -54 c-2 -13 -12 -22 -26 -24
-29 -4 -42 26 -18 44 24 17 48 6 44 -20z m577 -227 c4 -12 2 -26 -3 -31 -15
-15 -52 0 -52 21 0 36 44 44 55 10z"/>
<path d="M527 2202 c-43 -47 -5 -126 58 -120 28 2 41 -4 70 -32 l36 -35 -2
-110 -1 -109 66 -63 c36 -35 66 -65 66 -68 0 -3 -44 -5 -97 -5 l-98 0 -57 53
c-47 44 -57 59 -60 91 -4 55 -44 84 -88 66 -55 -23 -67 -80 -25 -120 19 -18
32 -22 58 -17 31 5 39 0 93 -54 l58 -59 134 0 135 0 103 -102 104 -103 0 -102
c0 -99 -1 -103 -22 -103 -14 0 -70 48 -169 146 l-147 146 -91 -3 c-78 -3 -92
-2 -96 12 -8 26 -56 42 -88 30 -51 -19 -62 -77 -22 -116 32 -33 60 -31 97 5
28 28 35 30 105 30 l75 0 128 -122 129 -123 -82 -5 c-81 -5 -82 -5 -99 22 -37
59 -119 38 -126 -32 -7 -70 74 -106 120 -53 l23 28 142 0 142 0 145 -144 146
-144 0 -137 0 -136 -60 -65 -60 -64 0 -132 c0 -126 1 -133 20 -133 19 0 20 7
20 126 l0 126 60 65 60 66 0 219 0 219 -87 89 -88 89 0 112 0 113 -77 75 -77
76 -3 73 c-3 62 -1 73 14 78 18 5 35 47 29 74 -9 46 -66 64 -109 34 -32 -22
-30 -76 3 -102 20 -16 25 -29 25 -66 0 -25 -2 -46 -5 -46 -3 0 -46 39 -95 87
l-90 87 0 67 c0 59 3 71 25 93 30 31 32 55 4 90 -15 19 -30 26 -54 26 -63 0
-88 -79 -40 -124 22 -21 25 -31 25 -94 l0 -71 148 -144 c81 -80 168 -164 195
-187 l47 -42 0 -117 0 -116 85 -85 c82 -81 85 -86 85 -130 l0 -45 -135 137
-135 137 0 108 0 109 -195 194 -195 195 0 108 0 107 -40 44 c-22 24 -40 53
-40 65 0 25 -17 62 -34 73 -21 14 -73 8 -89 -10z m78 -42 c8 -25 -1 -40 -24
-40 -28 0 -46 26 -31 45 18 21 48 19 55 -5z m269 -125 c8 -23 -4 -45 -25 -45
-24 0 -42 33 -27 48 17 17 45 15 52 -3z m-410 -211 c20 -19 20 -28 1 -44 -33
-27 -74 17 -43 48 16 16 23 15 42 -4z m640 -10 c7 -19 -10 -44 -31 -44 -17 0
-27 24 -19 45 7 20 42 19 50 -1z m-583 -325 c8 -17 8 -24 -3 -36 -27 -27 -71
14 -47 43 17 20 37 17 50 -7z m239 -274 c19 -23 8 -50 -20 -50 -19 0 -26 6
-28 24 -5 35 26 53 48 26z"/>
</g>
</svg>
